<svg width="638" height="473" viewBox="0 0 638 473" fill="none" xmlns="http://www.w3.org/2000/svg">
<path d="M0 5C0 2.23858 2.23858 0 5 0H638V473H5C2.23858 473 0 470.761 0 468V5Z" fill="#D9D9D9"/>
<path d="M292.875 214.875V267.125H345.125V214.875H292.875ZM290.5 210.125H347.5C348.13 210.125 348.734 210.375 349.179 210.821C349.625 211.266 349.875 211.87 349.875 212.5V269.5C349.875 270.13 349.625 270.734 349.179 271.179C348.734 271.625 348.13 271.875 347.5 271.875H290.5C289.87 271.875 289.266 271.625 288.821 271.179C288.375 270.734 288.125 270.13 288.125 269.5V212.5C288.125 211.87 288.375 211.266 288.821 210.821C289.266 210.375 289.87 210.125 290.5 210.125Z" fill="white"/>
<path d="M309.501 224.375C312.668 224.375 314.251 225.958 314.251 229.125C314.251 232.292 312.668 233.875 309.501 233.875C306.334 233.875 304.751 232.292 304.751 229.125C304.751 225.958 306.334 224.375 309.501 224.375ZM294.762 268.089L290.99 265.201L307.031 244.268C307.6 243.525 308.309 242.901 309.119 242.433C309.929 241.964 310.823 241.659 311.751 241.536C312.679 241.413 313.621 241.474 314.525 241.715C315.43 241.957 316.277 242.374 317.02 242.943L317.158 243.052L326.278 250.41C326.769 250.805 327.396 250.989 328.022 250.921C328.648 250.853 329.222 250.539 329.617 250.049L345.648 230.018L349.353 232.982L333.336 253.008L333.317 253.032C332.73 253.761 332.005 254.367 331.183 254.815C330.361 255.263 329.459 255.546 328.529 255.645C327.598 255.745 326.656 255.66 325.758 255.396C324.86 255.132 324.023 254.693 323.295 254.105L314.175 246.752L314.127 246.714C313.628 246.333 312.997 246.165 312.374 246.248C311.75 246.331 311.185 246.657 310.802 247.156L294.762 268.089Z" fill="white"/>
</svg>
